<?xml version="1.0" encoding="UTF-8" standalone="no"?>
<svg
   xmlns:dc="http://purl.org/dc/elements/1.1/"
   xmlns:cc="http://creativecommons.org/ns#"
   xmlns:rdf="http://www.w3.org/1999/02/22-rdf-syntax-ns#"
   xmlns:svg="http://www.w3.org/2000/svg"
   xmlns="http://www.w3.org/2000/svg"
   xmlns:xlink="http://www.w3.org/1999/xlink"
   xmlns:sodipodi="http://sodipodi.sourceforge.net/DTD/sodipodi-0.dtd"
   xmlns:inkscape="http://www.inkscape.org/namespaces/inkscape"
   width="4000"
   height="1000"
   viewBox="0 0 1058.3333 264.58333"
   version="1.1"
   id="svg8"
   sodipodi:docname="DEON_BannerX.svg"
   inkscape:version="1.0.1 (3bc2e813f5, 2020-09-07)">
  <defs
     id="defs2">
    <linearGradient
       inkscape:collect="always"
       id="linearGradient1463">
      <stop
         style="stop-color:#ffffff;stop-opacity:1;"
         offset="0"
         id="stop1459" />
      <stop
         style="stop-color:#ffffff;stop-opacity:0.40000001"
         offset="1"
         id="stop1461" />
    </linearGradient>
    <linearGradient
       inkscape:collect="always"
       id="linearGradient2189">
      <stop
         style="stop-color:#ffffff;stop-opacity:1;"
         offset="0"
         id="stop2185" />
      <stop
         style="stop-color:#ffffff;stop-opacity:0.2"
         offset="1"
         id="stop2187" />
    </linearGradient>
    <linearGradient
       inkscape:collect="always"
       id="linearGradient2181">
      <stop
         style="stop-color:#f01400;stop-opacity:1"
         offset="0"
         id="stop2177" />
      <stop
         style="stop-color:#f07800;stop-opacity:1"
         offset="1"
         id="stop2179" />
    </linearGradient>
    <color-profile
       name="sRGB-IEC61966-2.1"
       xlink:href="file:///C:/windows/system32/spool/drivers/color/sRGB%20Color%20Space%20Profile.icm"
       id="color-profile8" />
    <linearGradient
       inkscape:collect="always"
       xlink:href="#linearGradient1463"
       id="linearGradient2148"
       gradientUnits="userSpaceOnUse"
       gradientTransform="translate(-163.6904,-532.46862)"
       x1="521.15112"
       y1="744.9859"
       x2="681.36682"
       y2="588.80103" />
    <linearGradient
       inkscape:collect="always"
       xlink:href="#linearGradient1463"
       id="linearGradient2152"
       gradientUnits="userSpaceOnUse"
       gradientTransform="translate(21.166705,-532.58242)"
       x1="184.66795"
       y1="740.83331"
       x2="312.72235"
       y2="588.80103" />
    <linearGradient
       inkscape:collect="always"
       xlink:href="#linearGradient1463"
       id="linearGradient2154"
       gradientUnits="userSpaceOnUse"
       gradientTransform="translate(21.166705,-532.58242)"
       x1="711.95929"
       y1="740.83331"
       x2="831.33203"
       y2="588.80103" />
    <linearGradient
       inkscape:collect="always"
       xlink:href="#linearGradient2181"
       id="linearGradient2183"
       x1="0"
       y1="0"
       x2="4000"
       y2="0"
       gradientUnits="userSpaceOnUse"
       gradientTransform="matrix(0.26458333,0,0,0.26458333,-2.05e-5,-6.25e-6)" />
    <linearGradient
       inkscape:collect="always"
       xlink:href="#linearGradient1463"
       id="linearGradient2191"
       gradientUnits="userSpaceOnUse"
       gradientTransform="translate(21.166705,-532.58242)"
       x1="521.15112"
       y1="744.9859"
       x2="681.36682"
       y2="588.80103" />
    <filter
       style="color-interpolation-filters:sRGB;"
       inkscape:label="Blur"
       id="filter869"
       x="-0.2308845"
       width="1.461769"
       y="-0.92353798"
       height="2.847076">
      <feGaussianBlur
         stdDeviation="101.81365"
         result="fbSourceGraphic"
         id="feGaussianBlur867" />
      <feColorMatrix
         result="fbSourceGraphicAlpha"
         in="fbSourceGraphic"
         values="0 0 0 -1 0 0 0 0 -1 0 0 0 0 -1 0 0 0 0 1 0"
         id="feColorMatrix871" />
      <feGaussianBlur
         id="feGaussianBlur873"
         stdDeviation="60 60"
         result="blur"
         in="fbSourceGraphic" />
    </filter>
    <linearGradient
       inkscape:collect="always"
       xlink:href="#linearGradient2189"
       id="linearGradient883"
       gradientUnits="userSpaceOnUse"
       gradientTransform="translate(-1214.5941,-583.78437)"
       x1="521.15112"
       y1="744.9859"
       x2="681.36682"
       y2="588.80103" />
    <linearGradient
       inkscape:collect="always"
       xlink:href="#linearGradient2189"
       id="linearGradient885"
       gradientUnits="userSpaceOnUse"
       gradientTransform="translate(-1029.737,-583.89817)"
       x1="521.15112"
       y1="744.9859"
       x2="681.36682"
       y2="588.80103" />
    <linearGradient
       inkscape:collect="always"
       xlink:href="#linearGradient2189"
       id="linearGradient887"
       gradientUnits="userSpaceOnUse"
       gradientTransform="translate(-1029.737,-583.89817)"
       x1="184.66795"
       y1="740.83331"
       x2="312.72235"
       y2="588.80103" />
    <linearGradient
       inkscape:collect="always"
       xlink:href="#linearGradient2189"
       id="linearGradient889"
       gradientUnits="userSpaceOnUse"
       gradientTransform="translate(-1029.737,-583.89817)"
       x1="711.95929"
       y1="740.83331"
       x2="831.33203"
       y2="588.80103" />
    <filter
       inkscape:label="Blur Double"
       inkscape:menu="Blurs"
       inkscape:menu-tooltip="Overlays two copies with different blur amounts and modifiable blend and composite"
       style="color-interpolation-filters:sRGB;"
       id="filter1427">
      <feGaussianBlur
         stdDeviation="5"
         result="fbSourceGraphic"
         id="feGaussianBlur1419" />
      <feGaussianBlur
         stdDeviation="0.01"
         in="SourceGraphic"
         result="result1"
         id="feGaussianBlur1421" />
      <feComposite
         in2="result1"
         operator="arithmetic"
         in="fbSourceGraphic"
         k2="0.5"
         k3="0.5"
         result="result2"
         id="feComposite1423" />
      <feBlend
         in2="fbSourceGraphic"
         mode="normal"
         result="result3"
         id="feBlend1425" />
    </filter>
    <filter
       inkscape:label="Blur Double"
       inkscape:menu="Blurs"
       inkscape:menu-tooltip="Overlays two copies with different blur amounts and modifiable blend and composite"
       style="color-interpolation-filters:sRGB;"
       id="filter1437">
      <feGaussianBlur
         stdDeviation="5"
         result="fbSourceGraphic"
         id="feGaussianBlur1429" />
      <feGaussianBlur
         stdDeviation="0.01"
         in="SourceGraphic"
         result="result1"
         id="feGaussianBlur1431" />
      <feComposite
         in2="result1"
         operator="arithmetic"
         in="fbSourceGraphic"
         k2="0.5"
         k3="0.5"
         result="result2"
         id="feComposite1433" />
      <feBlend
         in2="fbSourceGraphic"
         mode="normal"
         result="result3"
         id="feBlend1435" />
    </filter>
    <filter
       inkscape:label="Blur Double"
       inkscape:menu="Blurs"
       inkscape:menu-tooltip="Overlays two copies with different blur amounts and modifiable blend and composite"
       style="color-interpolation-filters:sRGB;"
       id="filter1447">
      <feGaussianBlur
         stdDeviation="5"
         result="fbSourceGraphic"
         id="feGaussianBlur1439" />
      <feGaussianBlur
         stdDeviation="0.01"
         in="SourceGraphic"
         result="result1"
         id="feGaussianBlur1441" />
      <feComposite
         in2="result1"
         operator="arithmetic"
         in="fbSourceGraphic"
         k2="0.5"
         k3="0.5"
         result="result2"
         id="feComposite1443" />
      <feBlend
         in2="fbSourceGraphic"
         mode="normal"
         result="result3"
         id="feBlend1445" />
    </filter>
    <filter
       inkscape:label="Blur Double"
       inkscape:menu="Blurs"
       inkscape:menu-tooltip="Overlays two copies with different blur amounts and modifiable blend and composite"
       style="color-interpolation-filters:sRGB;"
       id="filter1457">
      <feGaussianBlur
         stdDeviation="5"
         result="fbSourceGraphic"
         id="feGaussianBlur1449" />
      <feGaussianBlur
         stdDeviation="0.01"
         in="SourceGraphic"
         result="result1"
         id="feGaussianBlur1451" />
      <feComposite
         in2="result1"
         operator="arithmetic"
         in="fbSourceGraphic"
         k2="0.5"
         k3="0.5"
         result="result2"
         id="feComposite1453" />
      <feBlend
         in2="fbSourceGraphic"
         mode="normal"
         result="result3"
         id="feBlend1455" />
    </filter>
    <filter
       style="color-interpolation-filters:sRGB;"
       inkscape:label="Blur"
       id="filter1473"
       x="-0.18992716"
       width="1.3798543"
       y="-0.75970864"
       height="2.5194173">
      <feGaussianBlur
         stdDeviation="83.752605"
         result="fbSourceGraphic"
         id="feGaussianBlur1467" />
      <feColorMatrix
         result="fbSourceGraphicAlpha"
         in="fbSourceGraphic"
         values="0 0 0 -1 0 0 0 0 -1 0 0 0 0 -1 0 0 0 0 1 0"
         id="feColorMatrix1469" />
      <feGaussianBlur
         id="feGaussianBlur1471"
         stdDeviation="60 60"
         result="blur"
         in="fbSourceGraphic" />
    </filter>
  </defs>
  <sodipodi:namedview
     id="base"
     pagecolor="#575757"
     bordercolor="#666666"
     borderopacity="1.0"
     inkscape:pageopacity="0.28627451"
     inkscape:pageshadow="2"
     inkscape:zoom="0.24748738"
     inkscape:cx="1593.1063"
     inkscape:cy="297.21546"
     inkscape:document-units="px"
     inkscape:current-layer="layer1"
     inkscape:document-rotation="0"
     showgrid="true"
     units="px"
     inkscape:pagecheckerboard="true"
     borderlayer="true"
     inkscape:showpageshadow="false"
     inkscape:window-width="1920"
     inkscape:window-height="1002"
     inkscape:window-x="-8"
     inkscape:window-y="-8"
     inkscape:window-maximized="1"
     inkscape:snap-grids="false"
     inkscape:snap-page="true">
    <inkscape:grid
       type="xygrid"
       id="grid10"
       spacingx="10.16"
       spacingy="10.16"
       color="#ff9000"
       opacity="0.2"
       empcolor="#ff9000"
       empopacity="0.2"
       dotted="true" />
  </sodipodi:namedview>
  <metadata
     id="metadata5">
    <rdf:RDF>
      <cc:Work
         rdf:about="">
        <dc:format>image/svg+xml</dc:format>
        <dc:type
           rdf:resource="http://purl.org/dc/dcmitype/StillImage" />
        <dc:title></dc:title>
      </cc:Work>
    </rdf:RDF>
  </metadata>
  <g
     inkscape:label="Layer 1"
     inkscape:groupmode="layer"
     id="layer1">
    <rect
       style="fill:#ffffff;fill-opacity:0.38955823;stroke:none;stroke-width:158.7499965;stroke-linejoin:bevel;filter:url(#filter1473);stroke-opacity:0.40000001;stroke-miterlimit:4;stroke-dasharray:none;opacity:0.74516129"
       id="rect1465"
       width="1058.3334"
       height="264.58334"
       x="-7.0158691e-05"
       y="-1.7539673e-05" />
    <rect
       style="fill:#ffffff;fill-opacity:0.686747;stroke:none;stroke-width:13.2292;stroke-linejoin:bevel;filter:url(#filter869)"
       id="rect849"
       width="1058.3334"
       height="264.58334"
       x="-109.04596"
       y="-372.03915" />
    <path
       id="rect2172"
       style="fill:url(#linearGradient2183);fill-opacity:1;stroke:none;stroke-width:13.2292;stroke-linejoin:bevel"
       d="M -2.05e-5,-6.25e-6 V 264.58333 H 1058.3333 V -6.25e-6 Z M 622.42402,52.066064 a 80.168749,80.168749 0 0 1 0.0625,0 80.168749,80.168749 0 0 1 80.16875,80.168756 80.168749,80.168749 0 0 1 -80.16875,80.16875 80.168749,80.168749 0 0 1 -80.16875,-80.16875 80.168749,80.168749 0 0 1 80.10623,-80.168756 z m -184.85694,0.11369 h 0.0625 c 44.27601,0 80.16875,35.89276 80.16875,80.168756 -1.1e-4,11.21917 -2.35802,22.29779 -6.89933,32.52669 -0.0217,0.049 -0.0438,0.0978 -0.0656,0.14677 -0.22,0.49284 -0.44323,0.9845 -0.67333,1.47329 0.22987,-0.48885 0.45362,-0.98024 0.67333,-1.47329 0.0218,-0.0489 0.0439,-0.0978 0.0656,-0.14677 3.45668,-7.7992 5.64229,-16.1109 6.48592,-24.6202 h -15.88688 c -0.3632,2.93288 -0.92805,5.83725 -1.69035,8.69249 0.7496,-2.82613 1.3134,-5.72828 1.67691,-8.69249 H 373.76167 c 3.991,32.23903 31.38284,56.44914 63.86793,56.44927 24.33672,3e-5 46.21596,-13.6712 57.12571,-34.70951 1.18496,-2.28507 2.24012,-4.65729 3.15537,-7.10809 -0.91014,2.44364 -1.96424,4.81643 -3.15537,7.10809 -0.0988,0.19007 -0.19439,0.38208 -0.29506,0.57103 l 13.95418,7.4197 c -13.9169,26.1738 -41.14115,42.5318 -70.78483,42.53177 -44.2759,0 -80.16875,-35.89276 -80.16875,-80.16875 0,-44.251576 35.85472,-80.134256 80.10623,-80.168756 z m -231.73263,4.03903 c 81.0362,1e-5 128.05473,-1.5e-4 128.05473,77.928066 0,74.10411 -42.43052,74.104 -128.05473,74.104 z m 527.29131,0 h 3.30729 101.07962 14.98618 V 208.25085 L 748.93877,72.031254 748.83593,208.25085 h -15.71017 z" />
    <path
       d="M 733.12601,208.25091 V 56.218589 h 3.3073 101.0793 14.9861 V 208.25091 L 748.93861,72.031149 748.83571,208.25091 Z"
       style="font-style:normal;font-variant:normal;font-weight:normal;font-stretch:normal;font-size:211.667px;line-height:1.25;font-family:'Century Gothic';-inkscape-font-specification:'Century Gothic';fill:url(#linearGradient2154);fill-opacity:1.0;stroke-width:0;stroke-miterlimit:4;stroke-dasharray:none;filter:url(#filter1457)"
       id="path2140"
       sodipodi:nodetypes="ccccccccc" />
    <path
       style="fill:url(#linearGradient2152);fill-opacity:1;stroke:none;stroke-width:0.264583px;stroke-linecap:butt;stroke-linejoin:miter;stroke-opacity:1;filter:url(#filter1427)"
       d="M 205.8346,208.25091 V 56.218589 c 81.03621,10e-6 128.0544,0 128.0544,77.928211 0,74.10411 -42.43019,74.10411 -128.0544,74.10411 z"
       id="path2142"
       sodipodi:nodetypes="ccsc" />
    <path
       id="path2144"
       style="fill:url(#linearGradient2191);fill-opacity:1.0;stroke:none;stroke-width:0;stroke-linejoin:bevel;stroke-miterlimit:4;stroke-dasharray:none;filter:url(#filter1447)"
       d="m 702.65531,132.23476 a 80.168747,80.168747 0 0 1 -80.1687,80.16875 80.168747,80.168747 0 0 1 -80.16881,-80.16875 80.168747,80.168747 0 0 1 80.16881,-80.168761 80.168747,80.168747 0 0 1 80.1687,80.168761 z" />
    <path
       id="path2146"
       style="fill:url(#linearGradient2148);fill-opacity:1.0;stroke:none;stroke-width:0;stroke-linejoin:bevel;stroke-miterlimit:4;stroke-dasharray:none;filter:url(#filter1437)"
       d="m 437.56711,52.179819 c -44.25151,0.0345 -80.10621,35.91719 -80.10621,80.168761 0,44.27599 35.8928,80.16875 80.16871,80.16875 29.64369,3e-5 56.868,-16.35797 70.78489,-42.53177 l -13.9542,-7.41971 c 1.9325,-3.62696 3.5196,-7.46358 4.732,-11.46336 -8.2524,27.08997 -33.2436,45.60189 -61.5627,45.60186 -32.4851,-1.3e-4 -59.8769,-24.21025 -63.8679,-56.44928 h 127.723 c -0.3635,2.96421 -0.9273,5.86635 -1.6769,8.69249 0.7623,-2.85525 1.3271,-5.75961 1.6903,-8.69249 h 15.8869 c -0.9663,9.74657 -3.691,19.23479 -8.0724,27.98951 5.5802,-11.14314 8.4857,-23.43375 8.4858,-35.896 0,-44.275991 -35.8928,-80.168761 -80.1688,-80.168761 z m 71.7455,116.064761 c -0.2921,0.58364 -0.5913,1.16401 -0.89811,1.74098 0.30641,-0.57666 0.6058,-1.15702 0.89811,-1.74098 z m -9.5048,-19.29702 c -0.014,0.0514 -0.027,0.10269 -0.041,0.15402 0.014,-0.0513 0.027,-0.10266 0.041,-0.15402 z m -0.6155,2.15493 c 0.094,-0.31089 0.1879,-0.62198 0.2775,-0.93483 -0.09,0.31232 -0.1826,0.62392 -0.2775,0.93483 z m 0.2775,-0.93483 c 0.1012,-0.35123 0.1994,-0.70334 0.2945,-1.05627 -0.095,0.35351 -0.1939,0.70517 -0.2945,1.05627 z"
       sodipodi:nodetypes="ssscccscccccccsscccccccccccc" />
    <path
       d="M -317.77772,156.93516 V 4.9028422 h 3.3073 101.0793 14.9861 V 156.93516 l -103.5601,-136.219758 -0.1029,136.219758 z"
       style="font-style:normal;font-variant:normal;font-weight:normal;font-stretch:normal;font-size:211.667px;line-height:1.25;font-family:'Century Gothic';-inkscape-font-specification:'Century Gothic';fill:url(#linearGradient889);fill-opacity:1;stroke-width:0;stroke-miterlimit:4;stroke-dasharray:none"
       id="path875"
       sodipodi:nodetypes="ccccccccc" />
    <path
       style="fill:url(#linearGradient887);fill-opacity:1;stroke:none;stroke-width:0.264583px;stroke-linecap:butt;stroke-linejoin:miter;stroke-opacity:1"
       d="M -845.06913,156.93516 V 4.9028422 c 81.03621,10e-6 128.0544,0 128.0544,77.9282108 0,74.104107 -42.43019,74.104107 -128.0544,74.104107 z"
       id="path877"
       sodipodi:nodetypes="ccsc" />
    <path
       id="path879"
       style="fill:url(#linearGradient885);fill-opacity:1;stroke:none;stroke-width:0;stroke-linejoin:bevel;stroke-miterlimit:4;stroke-dasharray:none"
       d="m -348.24842,80.919013 a 80.168747,80.168747 0 0 1 -80.1687,80.168747 80.168747,80.168747 0 0 1 -80.16881,-80.168747 80.168747,80.168747 0 0 1 80.16881,-80.16876079 80.168747,80.168747 0 0 1 80.1687,80.16876079 z" />
    <path
       id="path881"
       style="fill:url(#linearGradient883);fill-opacity:1;stroke:none;stroke-width:0;stroke-linejoin:bevel;stroke-miterlimit:4;stroke-dasharray:none"
       d="m -613.33662,0.86407221 c -44.25151,0.0345 -80.10621,35.91718979 -80.10621,80.16876079 0,44.275987 35.8928,80.168747 80.16871,80.168747 29.64369,3e-5 56.868,-16.35797 70.78489,-42.53177 l -13.9542,-7.41971 c 1.9325,-3.62696 3.5196,-7.46358 4.732,-11.463357 -8.2524,27.089967 -33.2436,45.601887 -61.5627,45.601857 -32.4851,-1.3e-4 -59.8769,-24.21025 -63.8679,-56.449277 h 127.723 c -0.3635,2.96421 -0.9273,5.86635 -1.6769,8.69249 0.7623,-2.85525 1.3271,-5.75961 1.6903,-8.69249 h 15.8869 c -0.9663,9.74657 -3.691,19.234787 -8.0724,27.989507 5.5802,-11.14314 8.4857,-23.433747 8.4858,-35.895997 0,-44.275991 -35.8928,-80.16876079 -80.1688,-80.16876079 z m 71.7455,116.06475779 c -0.2921,0.58364 -0.5913,1.16401 -0.89811,1.74098 0.30641,-0.57666 0.6058,-1.15702 0.89811,-1.74098 z m -9.5048,-19.297017 c -0.014,0.0514 -0.027,0.10269 -0.041,0.15402 0.014,-0.0513 0.027,-0.10266 0.041,-0.15402 z m -0.6155,2.15493 c 0.094,-0.31089 0.1879,-0.62198 0.2775,-0.93483 -0.09,0.31232 -0.1826,0.62392 -0.2775,0.93483 z m 0.2775,-0.93483 c 0.1012,-0.35123 0.1994,-0.70334 0.2945,-1.05627 -0.095,0.35351 -0.1939,0.70517 -0.2945,1.05627 z"
       sodipodi:nodetypes="ssscccscccccccsscccccccccccc" />
  </g>
</svg>
