<?xml version="1.0" encoding="UTF-8" standalone="no"?>
<svg
   xmlns:dc="http://purl.org/dc/elements/1.1/"
   xmlns:cc="http://creativecommons.org/ns#"
   xmlns:rdf="http://www.w3.org/1999/02/22-rdf-syntax-ns#"
   xmlns:svg="http://www.w3.org/2000/svg"
   xmlns="http://www.w3.org/2000/svg"
   xmlns:xlink="http://www.w3.org/1999/xlink"
   xmlns:sodipodi="http://sodipodi.sourceforge.net/DTD/sodipodi-0.dtd"
   xmlns:inkscape="http://www.inkscape.org/namespaces/inkscape"
   width="4000"
   height="1000"
   viewBox="0 0 1058.3333 264.58333"
   version="1.1"
   id="svg8"
   sodipodi:docname="DEON_Banner.svg"
   inkscape:version="1.0.1 (3bc2e813f5, 2020-09-07)">
  <defs
     id="defs2">
    <linearGradient
       inkscape:collect="always"
       id="linearGradient2189">
      <stop
         style="stop-color:#ffffff;stop-opacity:1;"
         offset="0"
         id="stop2185" />
      <stop
         style="stop-color:#ffffff;stop-opacity:0.2"
         offset="1"
         id="stop2187" />
    </linearGradient>
    <linearGradient
       inkscape:collect="always"
       id="linearGradient2181">
      <stop
         style="stop-color:#f01400;stop-opacity:1"
         offset="0"
         id="stop2177" />
      <stop
         style="stop-color:#f07800;stop-opacity:1"
         offset="1"
         id="stop2179" />
    </linearGradient>
    <color-profile
       name="sRGB-IEC61966-2.1"
       xlink:href="file:///C:/windows/system32/spool/drivers/color/sRGB%20Color%20Space%20Profile.icm"
       id="color-profile1471" />
    <linearGradient
       inkscape:collect="always"
       id="linearGradient970">
      <stop
         style="stop-color:#ffffff;stop-opacity:1;"
         offset="0"
         id="stop966" />
      <stop
         style="stop-color:#ffffff;stop-opacity:0;"
         offset="1"
         id="stop968" />
    </linearGradient>
    <linearGradient
       inkscape:collect="always"
       xlink:href="#linearGradient2189"
       id="linearGradient2148"
       gradientUnits="userSpaceOnUse"
       gradientTransform="translate(-163.6904,-532.46862)"
       x1="521.15112"
       y1="744.9859"
       x2="681.36682"
       y2="588.80103" />
    <linearGradient
       inkscape:collect="always"
       xlink:href="#linearGradient2189"
       id="linearGradient2152"
       gradientUnits="userSpaceOnUse"
       gradientTransform="translate(21.166705,-532.58242)"
       x1="184.66795"
       y1="740.83331"
       x2="312.72235"
       y2="588.80103" />
    <linearGradient
       inkscape:collect="always"
       xlink:href="#linearGradient2189"
       id="linearGradient2154"
       gradientUnits="userSpaceOnUse"
       gradientTransform="translate(21.166705,-532.58242)"
       x1="711.95929"
       y1="740.83331"
       x2="831.33203"
       y2="588.80103" />
    <linearGradient
       inkscape:collect="always"
       xlink:href="#linearGradient970"
       id="linearGradient2164"
       gradientUnits="userSpaceOnUse"
       gradientTransform="translate(-1120.7261,-642.83767)"
       x1="521.15112"
       y1="744.9859"
       x2="681.36682"
       y2="588.80103" />
    <linearGradient
       inkscape:collect="always"
       xlink:href="#linearGradient970"
       id="linearGradient2166"
       gradientUnits="userSpaceOnUse"
       gradientTransform="translate(-935.86899,-642.95147)"
       x1="521.15112"
       y1="744.9859"
       x2="681.36682"
       y2="588.80103" />
    <linearGradient
       inkscape:collect="always"
       xlink:href="#linearGradient970"
       id="linearGradient2168"
       gradientUnits="userSpaceOnUse"
       gradientTransform="translate(-935.86899,-642.95147)"
       x1="184.66795"
       y1="740.83331"
       x2="312.72235"
       y2="588.80103" />
    <linearGradient
       inkscape:collect="always"
       xlink:href="#linearGradient970"
       id="linearGradient2170"
       gradientUnits="userSpaceOnUse"
       gradientTransform="translate(-935.86899,-642.95147)"
       x1="711.95929"
       y1="740.83331"
       x2="831.33203"
       y2="588.80103" />
    <linearGradient
       inkscape:collect="always"
       xlink:href="#linearGradient2181"
       id="linearGradient2183"
       x1="0"
       y1="0"
       x2="4000"
       y2="0"
       gradientUnits="userSpaceOnUse" />
    <linearGradient
       inkscape:collect="always"
       xlink:href="#linearGradient2189"
       id="linearGradient2191"
       gradientUnits="userSpaceOnUse"
       gradientTransform="translate(21.166705,-532.58242)"
       x1="521.15112"
       y1="744.9859"
       x2="681.36682"
       y2="588.80103" />
  </defs>
  <sodipodi:namedview
     id="base"
     pagecolor="#f3f3f3"
     bordercolor="#666666"
     borderopacity="1.0"
     inkscape:pageopacity="0"
     inkscape:pageshadow="2"
     inkscape:zoom="0.12374369"
     inkscape:cx="1543.3637"
     inkscape:cy="-325.22351"
     inkscape:document-units="px"
     inkscape:current-layer="layer1"
     inkscape:document-rotation="0"
     showgrid="true"
     units="px"
     inkscape:pagecheckerboard="true"
     borderlayer="true"
     inkscape:showpageshadow="false"
     inkscape:window-width="1920"
     inkscape:window-height="1002"
     inkscape:window-x="-8"
     inkscape:window-y="-8"
     inkscape:window-maximized="1"
     inkscape:snap-grids="false"
     inkscape:snap-page="true">
    <inkscape:grid
       type="xygrid"
       id="grid10"
       spacingx="10.16"
       spacingy="10.16"
       color="#ff9000"
       opacity="0.2"
       empcolor="#ff9000"
       empopacity="0.2"
       dotted="true" />
  </sodipodi:namedview>
  <metadata
     id="metadata5">
    <rdf:RDF>
      <cc:Work
         rdf:about="">
        <dc:format>image/svg+xml</dc:format>
        <dc:type
           rdf:resource="http://purl.org/dc/dcmitype/StillImage" />
        <dc:title></dc:title>
      </cc:Work>
    </rdf:RDF>
  </metadata>
  <g
     inkscape:label="Layer 1"
     inkscape:groupmode="layer"
     id="layer1">
    <path
       id="rect2172"
       style="fill:url(#linearGradient2183);fill-opacity:1;stroke:none;stroke-width:50.0001;stroke-linejoin:bevel"
       d="M 0 0 L 0 1000 L 4000 1000 L 4000 0 L 0 0 z M 2352.4688 196.78516 A 303 303 0 0 1 2352.7051 196.78516 A 303 303 0 0 1 2655.7051 499.78516 A 303 303 0 0 1 2352.7051 802.78516 A 303 303 0 0 1 2049.7051 499.78516 A 303 303 0 0 1 2352.4688 196.78516 z M 1653.7969 197.21484 L 1654.0332 197.21484 C 1821.3756 197.21484 1957.0332 332.87251 1957.0332 500.21484 C 1957.0328 542.61802 1948.121 584.48995 1930.957 623.15039 C 1930.875 623.33555 1930.7914 623.52007 1930.709 623.70508 C 1929.8775 625.56779 1929.0338 627.42603 1928.1641 629.27344 C 1929.0329 627.42581 1929.8786 625.56858 1930.709 623.70508 C 1930.7915 623.52015 1930.8749 623.33547 1930.957 623.15039 C 1944.0216 593.67308 1952.2822 562.25878 1955.4707 530.09766 L 1895.4258 530.09766 C 1894.0531 541.18256 1891.9182 552.15968 1889.0371 562.95117 C 1891.8702 552.2697 1894.0011 541.30097 1895.375 530.09766 L 1412.6426 530.09766 C 1427.7267 651.94596 1531.2549 743.44873 1654.0332 743.44922 C 1746.0145 743.44932 1828.7077 691.77856 1869.9414 612.26367 C 1874.42 603.62719 1878.408 594.66132 1881.8672 585.39844 C 1878.4273 594.63427 1874.4433 603.60226 1869.9414 612.26367 C 1869.568 612.98206 1869.2067 613.70775 1868.8262 614.42188 L 1921.5664 642.46484 C 1868.9671 741.38944 1766.0723 803.21496 1654.0332 803.21484 C 1486.6912 803.21484 1351.0332 667.55718 1351.0332 500.21484 C 1351.0332 332.96481 1486.5471 197.34524 1653.7969 197.21484 z M 777.95703 212.48047 C 1084.2356 212.48051 1261.9434 212.47989 1261.9434 507.01172 C 1261.9434 787.09025 1101.5761 787.08984 777.95703 787.08984 L 777.95703 212.48047 z M 2770.8691 212.48047 L 2783.3691 212.48047 L 3165.4023 212.48047 L 3222.043 212.48047 L 3222.043 787.08984 L 2830.6348 272.24414 L 2830.2461 787.08984 L 2770.8691 787.08984 L 2770.8691 212.48047 z "
       transform="scale(0.26458333)" />
    <path
       d="M 733.12601,208.25091 V 56.218589 h 3.3073 101.0793 14.9861 V 208.25091 L 748.93861,72.031149 748.83571,208.25091 Z"
       style="font-style:normal;font-variant:normal;font-weight:normal;font-stretch:normal;font-size:211.667px;line-height:1.25;font-family:'Century Gothic';-inkscape-font-specification:'Century Gothic';fill:url(#linearGradient2154);fill-opacity:1.0;stroke-width:0;stroke-miterlimit:4;stroke-dasharray:none"
       id="path2140"
       sodipodi:nodetypes="ccccccccc" />
    <path
       style="fill:url(#linearGradient2152);fill-opacity:1;stroke:none;stroke-width:0.264583px;stroke-linecap:butt;stroke-linejoin:miter;stroke-opacity:1"
       d="M 205.8346,208.25091 V 56.218589 c 81.03621,10e-6 128.0544,0 128.0544,77.928211 0,74.10411 -42.43019,74.10411 -128.0544,74.10411 z"
       id="path2142"
       sodipodi:nodetypes="ccsc" />
    <path
       id="path2144"
       style="fill:url(#linearGradient2191);fill-opacity:1.0;stroke:none;stroke-width:0;stroke-linejoin:bevel;stroke-miterlimit:4;stroke-dasharray:none"
       d="m 702.65531,132.23476 a 80.168747,80.168747 0 0 1 -80.1687,80.16875 80.168747,80.168747 0 0 1 -80.16881,-80.16875 80.168747,80.168747 0 0 1 80.16881,-80.168761 80.168747,80.168747 0 0 1 80.1687,80.168761 z" />
    <path
       id="path2146"
       style="fill:url(#linearGradient2148);fill-opacity:1.0;stroke:none;stroke-width:0;stroke-linejoin:bevel;stroke-miterlimit:4;stroke-dasharray:none"
       d="m 437.56711,52.179819 c -44.25151,0.0345 -80.10621,35.91719 -80.10621,80.168761 0,44.27599 35.8928,80.16875 80.16871,80.16875 29.64369,3e-5 56.868,-16.35797 70.78489,-42.53177 l -13.9542,-7.41971 c 1.9325,-3.62696 3.5196,-7.46358 4.732,-11.46336 -8.2524,27.08997 -33.2436,45.60189 -61.5627,45.60186 -32.4851,-1.3e-4 -59.8769,-24.21025 -63.8679,-56.44928 h 127.723 c -0.3635,2.96421 -0.9273,5.86635 -1.6769,8.69249 0.7623,-2.85525 1.3271,-5.75961 1.6903,-8.69249 h 15.8869 c -0.9663,9.74657 -3.691,19.23479 -8.0724,27.98951 5.5802,-11.14314 8.4857,-23.43375 8.4858,-35.896 0,-44.275991 -35.8928,-80.168761 -80.1688,-80.168761 z m 71.7455,116.064761 c -0.2921,0.58364 -0.5913,1.16401 -0.89811,1.74098 0.30641,-0.57666 0.6058,-1.15702 0.89811,-1.74098 z m -9.5048,-19.29702 c -0.014,0.0514 -0.027,0.10269 -0.041,0.15402 0.014,-0.0513 0.027,-0.10266 0.041,-0.15402 z m -0.6155,2.15493 c 0.094,-0.31089 0.1879,-0.62198 0.2775,-0.93483 -0.09,0.31232 -0.1826,0.62392 -0.2775,0.93483 z m 0.2775,-0.93483 c 0.1012,-0.35123 0.1994,-0.70334 0.2945,-1.05627 -0.095,0.35351 -0.1939,0.70517 -0.2945,1.05627 z"
       sodipodi:nodetypes="ssscccscccccccsscccccccccccc" />
    <path
       d="M -223.90968,97.881865 V -54.150456 h 3.3073 101.0793 14.9861 V 97.881865 l -103.5601,-136.219761 -0.1029,136.219761 z"
       style="font-style:normal;font-variant:normal;font-weight:normal;font-stretch:normal;font-size:211.667px;line-height:1.25;font-family:'Century Gothic';-inkscape-font-specification:'Century Gothic';fill:url(#linearGradient2170);fill-opacity:1;stroke-width:0;stroke-miterlimit:4;stroke-dasharray:none"
       id="path2156"
       sodipodi:nodetypes="ccccccccc" />
    <path
       style="fill:url(#linearGradient2168);fill-opacity:1;stroke:none;stroke-width:0.264583px;stroke-linecap:butt;stroke-linejoin:miter;stroke-opacity:1"
       d="M -751.20109,97.881865 V -54.150456 c 81.03621,10e-6 128.0544,0 128.0544,77.928211 0,74.10411 -42.43019,74.10411 -128.0544,74.10411 z"
       id="path2158"
       sodipodi:nodetypes="ccsc" />
    <path
       id="path2160"
       style="fill:url(#linearGradient2166);fill-opacity:1;stroke:none;stroke-width:0;stroke-linejoin:bevel;stroke-miterlimit:4;stroke-dasharray:none"
       d="m -254.38038,21.865715 a 80.168747,80.168747 0 0 1 -80.1687,80.168745 80.168747,80.168747 0 0 1 -80.16881,-80.168745 80.168747,80.168747 0 0 1 80.16881,-80.168761 80.168747,80.168747 0 0 1 80.1687,80.168761 z" />
    <path
       id="path2162"
       style="fill:url(#linearGradient2164);fill-opacity:1;stroke:none;stroke-width:0;stroke-linejoin:bevel;stroke-miterlimit:4;stroke-dasharray:none"
       d="m -519.46858,-58.189226 c -44.25151,0.0345 -80.10621,35.91719 -80.10621,80.168761 0,44.27599 35.8928,80.168745 80.16871,80.168745 29.64369,3e-5 56.868,-16.357965 70.78489,-42.531765 l -13.9542,-7.41971 c 1.9325,-3.62696 3.5196,-7.46358 4.732,-11.46336 -8.2524,27.08997 -33.2436,45.60189 -61.5627,45.60186 -32.4851,-1.3e-4 -59.8769,-24.21025 -63.8679,-56.44928 h 127.723 c -0.3635,2.96421 -0.9273,5.86635 -1.6769,8.69249 0.7623,-2.85525 1.3271,-5.75961 1.6903,-8.69249 h 15.8869 c -0.9663,9.74657 -3.691,19.23479 -8.0724,27.98951 5.5802,-11.14314 8.4857,-23.43375 8.4858,-35.896 0,-44.275991 -35.8928,-80.168761 -80.1688,-80.168761 z m 71.7455,116.064761 c -0.2921,0.58364 -0.5913,1.16401 -0.89811,1.74098 0.30641,-0.57666 0.6058,-1.15702 0.89811,-1.74098 z m -9.5048,-19.29702 c -0.014,0.0514 -0.027,0.10269 -0.041,0.15402 0.014,-0.0513 0.027,-0.10266 0.041,-0.15402 z m -0.6155,2.15493 c 0.094,-0.31089 0.1879,-0.62198 0.2775,-0.93483 -0.09,0.31232 -0.1826,0.62392 -0.2775,0.93483 z m 0.2775,-0.93483 c 0.1012,-0.35123 0.1994,-0.70334 0.2945,-1.05627 -0.095,0.35351 -0.1939,0.70517 -0.2945,1.05627 z"
       sodipodi:nodetypes="ssscccscccccccsscccccccccccc" />
  </g>
</svg>
